<svg width="28" height="26" fill="none" xmlns="http://www.w3.org/2000/svg"><path d="M25.25 14.553V23h1.25v2.5h-25V23h1.25v-8.447a5.62 5.62 0 01-2.5-4.678c0-1.034.28-2.03.791-2.879l3.39-5.871A1.25 1.25 0 015.514.5h16.974a1.25 1.25 0 011.082.625l3.378 5.852a5.62 5.62 0 01-1.698 7.575zm-2.5.912a5.62 5.62 0 01-4.688-1.7 5.62 5.62 0 01-8.125.002 5.62 5.62 0 01-4.687 1.7V23h17.5v-7.535zM6.236 3L3.195 8.266a3.125 3.125 0 005.582 2.77c.42-1.046 1.9-1.046 2.32 0a3.124 3.124 0 005.806 0c.418-1.046 1.9-1.046 2.32 0a3.125 3.125 0 105.57-2.79L21.764 3H6.236z" fill="currentColor"/></svg>