<svg width="136" height="35" fill="none" xmlns="http://www.w3.org/2000/svg"><path fill-rule="evenodd" clip-rule="evenodd" d="M102.23 8.575c1.922 0 3.48-1.549 3.48-3.459 0-1.91-1.558-3.458-3.48-3.458s-3.48 1.548-3.48 3.458c0 1.91 1.558 3.459 3.48 3.459zM134.432 0h-3.312c-.433 0-.849.29-.913.635l-1.2 9.026a.375.375 0 00.383.435h2.431c.426 0 .888-.325 1.03-.725l2.804-7.912C136.068.626 135.544 0 134.432 0zm-4.9 29.48l-.202.044-.203.043a5.582 5.582 0 01-.838.118c-1.174.065-2.047-1.061-1.882-2.39l.062-.602c.309-2.238.536-3.93.743-5.584.269-2.146.357-3.242.304-4.487-.096-2.281-1.251-3.867-3.375-4.536a13.475 13.475 0 00-3.522-.604c-3.524-.126-7.09.553-11.158 1.982-.88.308-1.351.89-1.443 1.802a9.746 9.746 0 01-.096.665c-.036.211-.051.305-.067.421l-1.169 8.46-.234 1.691c-.153 1.11-.399 2.248-.399 2.248-.247 1.275-1.335 1.088-1.722 1.11-1.133.061-1.768-.495-1.813-1.605-.02-.463-.001-.943.051-1.553 1.315-9.066 1.951-13.505 2.03-14.27.057-.541-.1-.72-.631-.728a136.712 136.712 0 00-5.299.015c-.705.018-.971.27-1.075 1.01-.062.434-.225 1.556-.542 3.732l-.215 1.468-.115.786-.118.812-.5 3.416-.013.094c-.09.622-.421 3.117-.421 3.117a12.545 12.545 0 00-.054 2.994c-.203.183-3.085 2.642-5.417-3.157-.056-.139-.11-.268-.162-.388l-.39-1.001-.345-.884-.344-.88a.273.273 0 01.1-.325c.098-.068.196-.135.329-.223l.16-.106.155-.104c.255-.171.434-.3.6-.436 1.599-1.298 2.7-3.06 3.467-5.361.474-1.425.689-2.655.623-3.863-.033-.614-.265-.895-.721-.902-1.646-.027-3.349-.02-5.15.016-.428.008-.647.222-.724.706-.035.22-.056.448-.074.77l-.013.258c-.088 1.739-.596 3.275-1.556 4.611-1.066 1.482-3.337 2.329-5.029 1.867a.274.274 0 01-.2-.3l.423-3.217c.438-3.327.657-4.998.912-6.944l.155-1.182c.291-2.21.416-3.194.555-4.424.078-.688-.098-.868-.793-.82-1.845.131-3.454.259-4.99.4-.934.085-1.162.308-1.325 1.296-.069.418-.114.755-.213 1.54-.046.363-.07.543-.098.754a35405.808 35405.808 0 01-2.25 16.524l-.019.136c-.365 2.67-.541 3.964-.75 5.503l-.049.354a.275.275 0 01-.221.233c-.418.08-.732.124-1.045.141-1.143.062-1.785-.493-1.831-1.6-.02-.472-.002-.936.053-1.635.304-2.159.529-3.807.734-5.415.277-2.17.367-3.245.317-4.488-.092-2.304-1.277-3.904-3.463-4.57a14.38 14.38 0 00-3.693-.6c-3.53-.111-7.1.562-11.222 1.973-.91.312-1.392.9-1.503 1.84a71.568 71.568 0 01-.327 2.363c-.08.538-.116.778-.158 1.077a25017.91 25017.91 0 00-1.536 10.788.275.275 0 01-.22.23 7.75 7.75 0 01-1.106.157c-1.133.061-1.768-.495-1.813-1.605-.014-.318-.009-.65.011-1.03.014-.256.084-1.15.09-1.24 0 0 .058-.552.088-.823.219-1.938.439-3.481.97-6.965.287-1.877.414-2.728.562-3.78.125-.889-.182-1.366-1.185-1.708-.932-.319-1.366-.458-1.898-.6-2.994-.8-5.945-.88-8.846-.212-3.848.886-6.568 3.098-8.126 6.628a16.233 16.233 0 00-.873 2.52c-1.116-3.538-4.028-5.439-4.028-5.439s3.12-2.13 3.425-6.926C25.942 3.884 20.596.002 13.924.002 5.704.002.74 3.448.236 3.722c-.093.05-.272.155-.23.304L1.31 8.131c.075.277.093.498.44.342 0 0 3.24-1.31 3.956-1.31 0 0-3.73 25.72-3.64 25.72-.09.764 0 .979 1.028 1.281.41.12 18.728 4.117 22.838-6.497.018.124.036.247.057.372.304 1.817 1.008 3.28 2.197 4.392 1.86 1.74 4.173 2.237 7.11 1.739 1.033-.175 2.006-.642 2.997-1.398a.277.277 0 01.395.061c.75 1.072 1.886 1.673 4.103 1.669 2.203-.013 3.692-.506 5.074-.972a.277.277 0 01.34.147c.097.214-.222.665.544.665 1.902 0 3.59.033 5.2-.001.721-.015.982-.257 1.098-1.003a189.878 189.878 0 00.493-3.379l.436-3.102a2308.6 2308.6 0 011.319-9.308.899.899 0 01.5-.634 8.056 8.056 0 013.424-.583c1.185.055 1.915.657 2.136 1.761.079.389.1.772.054 1.121-.285 2.16-.566 4.242-.946 7.088 0 0-1.212 7.21 4.586 8.07 2.908.012 9.423.089 11.03.05.578-.013.837-.275.934-.935.11-.75.196-1.376.377-2.745l.113-.853a2093.56 2093.56 0 00.619-4.66.276.276 0 01.274-.238h2.14c.114 0 .216.069.258.174l.092.231c.01.023.018.046.026.067.513.992 2.012 3.89 2.4 4.676.383.779 3.727 5.693 8.148 4.275a4.847 4.847 0 003.099-2.082c.711 1.281 1.762 2.085 3.026 2.154v.064h10.122v-.067c.532-.02 1.718-.074 1.902-.11.355-.066.568-.295.654-.62.079-.296.137-.572.174-.837l.605-4.371.025-.182c.743-5.371 1.075-7.761 1.494-10.746.036-.256.242-.55.475-.647a7.87 7.87 0 013.414-.591c.959.044 1.666.484 1.948 1.327a3.56 3.56 0 01.175 1.528 610.83 610.83 0 01-.959 7.275c-.149 1.22-.624 7.443 5.09 7.917 1.127.008 1.609-.012 2.153-.104.747-.127 1.294-.386 1.729-.845.888-.936 1.548-2.23 1.548-3.45 0-.547-.47-.576-.601-.547zM13.089 6.1a.18.18 0 01.135-.148l.13-.03a6.78 6.78 0 01.348-.062c.848-.13 1.748-.136 2.598.067.617.147 3.317.78 2.455 4.21-.862 3.43-5.243 3.534-5.898 3.498a23.904 23.904 0 01-.452-.028l-.126-.01a2.54 2.54 0 01-.044-.003.18.18 0 01-.165-.202L13.09 6.1zm7.122 18.506c-1.149 5.174-8.154 4.595-9.074 4.545a38.438 38.438 0 01-.813-.054l-.062-.005a.252.252 0 01-.231-.284l1.432-10.25a.253.253 0 01.189-.208c.034-.008.096-.023.183-.041.144-.03.308-.06.49-.088 1.191-.183 2.457-.19 3.651.094.869.207 5.383 1.117 4.235 6.291zm19.63-6.257c-.137.855-1.032 7.878-1.324 9.767-.087.566-.608 1.013-1.152 1.175-1.107.33-1.9.375-2.713.034-.87-.365-1.412-1.082-1.623-2.03-.703-3.158-.24-6.082 1.448-8.703.88-1.364 2.36-2.103 3.901-1.998 1.005.069 1.202.104 1.41.352.212.251.204.451.053 1.403z" fill="#52B3F2"/></svg>44838 0.235628 3.72217C0.143158 3.77214 -0.0355138 3.87695 0.00621536 4.02629L1.30942 8.13133C1.38387 8.40783 1.40209 8.62873 1.74846 8.47336C1.74846 8.47336 4.98903 7.16394 5.70489 7.16394C5.70489 7.16394 1.97415 32.8823 2.06466 32.8823C1.97415 33.6467 2.06466 33.8616 3.09261 34.1641C3.50226 34.2849 21.8206 38.2808 25.9306 27.6668C25.9488 27.7906 25.9674 27.9145 25.9884 28.0389C26.2921 29.8557 26.9962 31.3193 28.1848 32.4312C30.0449 34.1713 32.3583 34.6678 35.2954 34.1696C36.3278 33.9946 37.3011 33.5275 38.2922 32.7721C38.4172 32.677 38.5967 32.7046 38.6866 32.8331C39.4377 33.9051 40.5726 34.506 42.7898 34.5017C44.9932 34.4887 46.4823 33.9963 47.8635 33.5298C47.9979 33.4843 48.1452 33.5479 48.2038 33.6766C48.3013 33.8911 47.9816 34.3424 48.7484 34.3424C50.6503 34.3424 52.3371 34.3749 53.9487 34.3409C54.6691 34.3257 54.9296 34.0836 55.0462 33.3377C55.18 32.4827 55.2952 31.6917 55.4882 30.3222C55.4997 30.2397 55.5091 30.1728 55.5393 29.9595C55.6567 29.1251 55.7507 28.4566 55.9754 26.8569C56.6203 22.2642 56.9205 20.1406 57.2935 17.5485C57.3295 17.2965 57.5556 17.0113 57.7939 16.915C58.8857 16.4729 60.037 16.2772 61.2182 16.3323C62.4027 16.3875 63.1328 16.9893 63.3544 18.093C63.4326 18.4817 63.4543 18.865 63.4083 19.2142C63.1232 21.374 62.8417 23.4556 62.462 26.3015C62.462 26.3015 61.2505 33.5129 67.0477 34.3712C69.9558 34.3837 76.4707 34.4605 78.0776 34.4222C78.6555 34.4086 78.9147 34.1474 79.0121 33.4869C79.1229 32.7361 79.2082 32.1111 79.389 30.7424C79.4454 30.3163 79.4705 30.126 79.5022 29.8888C79.5898 29.2342 79.6799 28.5564 79.7934 27.7014C79.8245 27.4657 80.0533 25.7382 80.1209 25.2293C80.1391 25.093 80.2561 24.9909 80.3946 24.9909H82.5357C82.6492 24.9909 82.751 25.06 82.7926 25.1648C82.799 25.1815 82.8641 25.3417 82.8852 25.396C82.8944 25.4193 82.9031 25.4417 82.9113 25.4635C83.4242 26.4546 84.9229 29.3538 85.3104 30.1394C85.6942 30.9178 89.0382 35.8319 93.4586 34.4142C94.158 34.275 95.5762 33.817 96.5575 32.3318C97.2694 33.6134 98.3205 34.4175 99.5843 34.4856V34.5497H109.706V34.4826C110.238 34.463 111.424 34.4086 111.608 34.3737C111.963 34.3065 112.176 34.0784 112.262 33.7538C112.341 33.4569 112.399 33.1806 112.436 32.9158C112.606 31.6892 112.753 30.6282 113.041 28.5447C113.053 28.4541 113.053 28.4541 113.066 28.3633C113.809 22.9918 114.141 20.6016 114.56 17.6168C114.596 17.3613 114.802 17.0665 115.035 16.9699C116.117 16.5207 117.263 16.3235 118.449 16.3787C119.408 16.4235 120.115 16.8629 120.397 17.7061C120.565 18.2077 120.632 18.7538 120.572 19.2339C120.316 21.2812 120.095 22.9556 119.637 26.3256C119.629 26.3861 119.621 26.4472 119.613 26.5086C119.464 27.7298 118.989 33.952 124.703 34.4259C125.83 34.4342 126.312 34.4136 126.856 34.3216C127.603 34.1954 128.15 33.9364 128.585 33.4773C129.473 32.5405 130.133 31.2478 130.133 30.0264C130.133 29.4798 129.663 29.451 129.532 29.4798ZM13.089 6.10049C13.099 6.02893 13.1521 5.9704 13.2236 5.95212C13.2477 5.9459 13.2918 5.93559 13.3541 5.92256C13.4561 5.90137 13.5729 5.87998 13.702 5.86015C14.5497 5.72987 15.4503 5.72423 16.2998 5.92704C16.9175 6.07443 19.6166 6.7062 18.755 10.1365C17.8931 13.567 13.5118 13.6714 12.8574 13.6354C12.6915 13.6263 12.5395 13.6166 12.4045 13.6068C12.3571 13.6033 12.3151 13.6002 12.2793 13.5973C12.2575 13.5956 12.2425 13.5944 12.2346 13.5936C12.131 13.5847 12.056 13.4927 12.0701 13.3918L13.089 6.10049ZM20.2108 24.6063C19.0621 29.7802 12.0573 29.2014 11.1371 29.1508C10.904 29.138 10.6903 29.1242 10.5004 29.1106C10.434 29.1057 10.375 29.1012 10.3245 29.0971C10.2939 29.0946 10.2728 29.0929 10.2618 29.0919C10.116 29.0795 10.0108 28.9501 10.0306 28.8082L11.4627 18.5589C11.4768 18.4584 11.5515 18.3759 11.652 18.3503C11.6859 18.3417 11.748 18.3271 11.8352 18.309C11.979 18.2789 12.1429 18.249 12.3245 18.2212C13.5163 18.038 14.7823 18.0302 15.9761 18.3151C16.8446 18.5224 21.3594 19.4324 20.2108 24.6063ZM39.8407 18.3487C39.7044 19.2039 38.8092 26.2271 38.5175 28.1156C38.43 28.6822 37.9088 29.1288 37.3652 29.2908C36.2585 29.6206 35.465 29.6661 34.6518 29.325C33.7816 28.9601 33.2399 28.2433 33.0289 27.2952C32.3261 24.1367 32.7887 21.2126 34.4772 18.5922C35.3565 17.2281 36.8374 16.4892 38.3784 16.5942C39.3829 16.6628 39.5803 16.6978 39.7888 16.9458C40 17.1972 39.9922 17.3971 39.8407 18.3487Z" fill="#52B3F2"/>
</svg>
