<svg width="30" height="36" fill="none" xmlns="http://www.w3.org/2000/svg"><path d="M16.173 15.302a2.481 2.481 0 110-4.963A7.866 7.866 0 0024.03 2.48a2.481 2.481 0 114.962 0 12.835 12.835 0 01-12.82 12.82z" fill="#EC6C0C"/><path d="M2.482 35.98A2.481 2.481 0 010 33.497a12.835 12.835 0 0112.82-12.82 2.481 2.481 0 110 4.962 7.866 7.866 0 00-7.857 7.858 2.482 2.482 0 01-2.481 2.481z" fill="#BE3818"/><path d="M16.173 35.98a2.482 2.482 0 010-4.963 7.86 7.86 0 007.26-4.85 7.859 7.859 0 00-7.26-10.866 2.481 2.481 0 110-4.962 12.82 12.82 0 110 25.64z" fill="url(#paint0_linear_103_147)"/><path d="M25.059 11.713a12.784 12.784 0 003.934-9.232 2.481 2.481 0 10-4.962 0 7.859 7.859 0 01-3.707 6.669 12.807 12.807 0 014.735 2.563z" fill="url(#paint1_linear_103_147)"/><path d="M12.82 25.64a12.82 12.82 0 110-25.64 2.481 2.481 0 010 4.963 7.857 7.857 0 100 15.715 2.481 2.481 0 110 4.962z" fill="url(#paint2_linear_103_147)"/><path d="M3.934 24.266A12.784 12.784 0 000 33.498a2.482 2.482 0 104.963 0 7.859 7.859 0 013.706-6.668 12.809 12.809 0 01-4.735-2.564z" fill="#E64A1A"/><defs><linearGradient id="paint0_linear_103_147" x1="21.366" y1="35.979" x2="21.366" y2="10.339" gradientUnits="userSpaceOnUse"><stop stop-color="#E9592D"/><stop offset="1" stop-color="#F39519"/></linearGradient><linearGradient id="paint1_linear_103_147" x1="22.674" y1="10.507" x2="30.571" y2="3.02" gradientUnits="userSpaceOnUse"><stop offset=".005" stop-color="#F39519"/><stop offset=".146" stop-color="#F39519"/><stop offset="1" stop-color="#F39519"/></linearGradient><linearGradient id="paint2_linear_103_147" x1="7.651" y1="25.64" x2="7.651" y2="0" gradientUnits="userSpaceOnUse"><stop stop-color="#E9592D"/><stop offset="1" stop-color="#F39519"/></linearGradient></defs></svg>