<svg width="28" height="40" fill="none" xmlns="http://www.w3.org/2000/svg"><path d="M13.429 12.348a11.585 11.585 0 014.236.763c-.994-4.99-2.528-8.044-4.244-8.041h-.002c-1.717.003-3.241 3.059-4.223 8.051 1.35-.52 2.786-.782 4.233-.773z" fill="url(#paint0_linear_103_162)"/><path d="M13.53 35.94l-2.185.002c.551 3.42 1.33 4.06 2.191 4.058.862-.001 1.636-.643 2.18-4.064l-2.186.003z" fill="#454EEC"/><path d="M18.84 26.214a118.31 118.31 0 00-1.065-12.231 12.017 12.017 0 00-8.687.01 120.973 120.973 0 00-1.034 12.335c-2.413 1.784-4.079 5.168-4.073 9.608l4.01-.005c.733 0 1.17-.187 1.17-.935l-.002-.014 4.3-.006 4.44-.005c0 .792.419.947 1.156.946l4.025-.005c-.006-4.525-1.747-7.967-4.24-9.698zm-5.408-10.926a1.668 1.668 0 11.004 3.336 1.668 1.668 0 01-.004-3.336zm.007 5.432a1.666 1.666 0 11.005 3.332 1.666 1.666 0 01-.005-3.332zm.012 8.766a1.666 1.666 0 11-.004-3.332 1.666 1.666 0 01.003 3.332z" fill="url(#paint1_linear_103_162)"/><path d="M13.434 15.983a.972.972 0 00.003 1.944.972.972 0 10-.003-1.944z" fill="#454EEC"/><path d="M13.441 21.415h-.002a.971.971 0 00.003 1.944.972.972 0 10-.002-1.944h.001z" fill="url(#paint2_linear_103_162)"/><path d="M13.448 26.847a.971.971 0 00.002 1.944.972.972 0 00-.003-1.944h.001z" fill="url(#paint3_linear_103_162)"/><path d="M18.696 12.996c-.822-4.123-2.404-9.04-5.279-9.04h-.028c-2.297.026-4.057 3.072-5.233 9.053l-.003.012-.328 1.87a61.777 61.777 0 00-.412 3.156 75.6 75.6 0 00-.295 3.75 10.457 10.457 0 1112.642.085 74.84 74.84 0 00-.37-4.388 61.447 61.447 0 00-.36-2.614l-.334-1.884z" fill="url(#paint4_linear_103_162)"/><path d="M13.484 0a13.52 13.52 0 00-6.596 25.302c.027-.563.058-1.12.092-1.67a12.036 12.036 0 1112.92.078c.033.548.064 1.1.093 1.659A13.517 13.517 0 0013.483 0z" fill="url(#paint5_linear_103_162)"/><defs><linearGradient id="paint0_linear_103_162" x1="13.431" y1="39.386" x2="13.431" y2="12.823" gradientUnits="userSpaceOnUse"><stop stop-color="#1153FC"/><stop offset="1" stop-color="#5581F1"/></linearGradient><linearGradient id="paint1_linear_103_162" x1="13.53" y1="39.396" x2="13.53" y2="12.834" gradientUnits="userSpaceOnUse"><stop stop-color="#1153FC"/><stop offset="1" stop-color="#5581F1"/></linearGradient><linearGradient id="paint2_linear_103_162" x1="13.448" y1="39.389" x2="13.448" y2="12.826" gradientUnits="userSpaceOnUse"><stop stop-color="#1153FC"/><stop offset="1" stop-color="#5581F1"/></linearGradient><linearGradient id="paint3_linear_103_162" x1="13.456" y1="39.389" x2="13.456" y2="12.826" gradientUnits="userSpaceOnUse"><stop stop-color="#1153FC"/><stop offset="1" stop-color="#5581F1"/></linearGradient><linearGradient id="paint4_linear_103_162" x1="13.495" y1="39.375" x2="13.495" y2="12.825" gradientUnits="userSpaceOnUse"><stop stop-color="#1153FC"/><stop offset="1" stop-color="#5581F1"/></linearGradient><linearGradient id="paint5_linear_103_162" x1="13.507" y1="39.398" x2="13.507" y2="12.837" gradientUnits="userSpaceOnUse"><stop stop-color="#1153FC"/><stop offset="1" stop-color="#5581F1"/></linearGradient></defs></svg>