<svg width="42" height="28" fill="none" xmlns="http://www.w3.org/2000/svg"><path d="M33.985 6.589h4.67a1.112 1.112 0 011.115 1.115l-.002 11.572a1.109 1.109 0 01-.688 1.03 1.1 1.1 0 01-.427.085h-4.67v2.23l4.674-.004A3.344 3.344 0 0042 19.274V7.704a3.337 3.337 0 00-3.34-3.341l-4.677-.002.002 2.228zm-1.893-.945l-.002-2.509C32.094 1.294 30.595 0 28.75 0H13.254c-1.847 0-3.349 1.416-3.347 3.26l.002 1.727h-.002l.002 2.771a3.389 3.389 0 003.341 3.398h15.494c1.847 0 3.349-1.678 3.347-3.522l-.002-1.99h.002zM29.86 7.72a1.116 1.116 0 01-1.113 1.124L13.25 8.85c-.614-.004-1.11-.639-1.115-1.253V5.644h.002l.002-2.57c-.002-.616.497-1.045 1.113-1.042l15.496.032a1.12 1.12 0 011.115 1.111v1.812h-.002L29.86 7.72z" fill="#454EEC"/><path d="M28.022 4.358H13.996v2.237h14.026V4.358zm.008 16.055H14.005v2.237h14.027v-2.237z" fill="#454EEC"/><path d="M32.118 21.919l-.003-2.64c.005-1.842-1.495-3.267-3.34-3.267H13.28a3.332 3.332 0 00-3.347 3.326l.001 1.793h-.001l.002 2.64c-.004 1.841 1.495 3.266 3.34 3.266H28.77a3.335 3.335 0 003.09-2.048 3.31 3.31 0 00.258-1.277l-.002-1.793h.002zm-2.233 1.876a1.09 1.09 0 01-1.113 1.089l-15.495-.01a1.135 1.135 0 01-1.115-1.127V21.92h.002l.002-2.705a1.105 1.105 0 011.113-1.11h15.496a1.166 1.166 0 011.115 1.163v1.864h-.002l-.003 2.664zm-21.87-3.402h-4.67a1.113 1.113 0 01-1.115-1.115l.002-11.573A1.112 1.112 0 013.348 6.59h4.67V4.36l-4.675.005A3.344 3.344 0 000 7.708v11.57a3.341 3.341 0 003.34 3.34l4.677.003-.002-2.228z" fill="#454EEC"/></svg>