<svg width="41" height="36" fill="none" xmlns="http://www.w3.org/2000/svg"><path d="M35.26 5.084l-1.987 10.059a.114.114 0 00.093.135c.02.004.041.002.06-.006l2.124-.8.015.088a17.934 17.934 0 01-25.273 19.071 18.877 18.877 0 0027.805-19.447l2.445.199a.115.115 0 00.11-.17l-5.18-9.164a.114.114 0 00-.18-.025.114.114 0 00-.033.06z" fill="url(#paint0_linear_103_178)"/><path d="M31.466 26.07A16.606 16.606 0 1113.313 0a17.487 17.487 0 1021.661 17.015 16.49 16.49 0 01-3.508 9.055z" fill="url(#paint1_linear_103_178)"/><path d="M27.816 8.536a22.568 22.568 0 01-3.47 3.537.115.115 0 00-.04.088v16.277a.618.618 0 01-.43.588l-.014.004a.615.615 0 01-.804-.587V13.27a.115.115 0 00-.061-.101.114.114 0 00-.118.007 22.426 22.426 0 01-5.502 2.763.114.114 0 00-.078.107v13.146a.616.616 0 01-.737.605l-.024-.004a.614.614 0 01-.495-.604c.003-1.415.006-3.32.009-3.32v-9.375a.114.114 0 00-.144-.11l-.056.015a7.453 7.453 0 00-5.56 7.207v2.16a.617.617 0 01-1.04.45A14.667 14.667 0 0124.757 1.98a15.439 15.439 0 102.981 26.027 14.53 14.53 0 002.096-1.76l.067-.071a.614.614 0 00.165-.42V5.513a.115.115 0 00-.085-.111.115.115 0 00-.13.055 22.597 22.597 0 01-2.034 3.078z" fill="url(#paint2_linear_103_178)"/><defs><linearGradient id="paint0_linear_103_178" x1="10.292" y1="20.496" x2="40.666" y2="20.496" gradientUnits="userSpaceOnUse"><stop stop-color="#403BEB"/><stop offset="1" stop-color="#22B7A0"/></linearGradient><linearGradient id="paint1_linear_103_178" x1="0" y1="17.234" x2="34.974" y2="17.234" gradientUnits="userSpaceOnUse"><stop stop-color="#403BEB"/><stop offset="1" stop-color="#22B7A0"/></linearGradient><linearGradient id="paint2_linear_103_178" x1="2.689" y1="15.924" x2="30.065" y2="15.924" gradientUnits="userSpaceOnUse"><stop stop-color="#403BEB"/><stop offset="1" stop-color="#22B7A0"/></linearGradient></defs></svg>