<svg xmlns="http://www.w3.org/2000/svg" xmlns:xlink="http://www.w3.org/1999/xlink"><defs>
<linearGradient id="paint0_linear_103_147" x1="21.3657" y1="35.9794" x2="21.3657" y2="10.3387" gradientUnits="userSpaceOnUse">
<stop stop-color="#E9592D"/>
<stop offset="1" stop-color="#F39519"/>
</linearGradient>
<linearGradient id="paint1_linear_103_147" x1="22.6735" y1="10.5068" x2="30.5708" y2="3.0202" gradientUnits="userSpaceOnUse">
<stop offset="0.005" stop-color="#F39519"/>
<stop offset="0.146" stop-color="#F39519"/>
<stop offset="1" stop-color="#F39519"/>
</linearGradient>
<linearGradient id="paint2_linear_103_147" x1="7.65137" y1="25.6405" x2="7.65137" y2="0" gradientUnits="userSpaceOnUse">
<stop stop-color="#E9592D"/>
<stop offset="1" stop-color="#F39519"/>
</linearGradient>

<linearGradient id="paint0_linear_103_162" x1="13.4305" y1="39.3856" x2="13.4305" y2="12.8234" gradientUnits="userSpaceOnUse">
<stop stop-color="#1153FC"/>
<stop offset="1" stop-color="#5581F1"/>
</linearGradient>
<linearGradient id="paint1_linear_103_162" x1="13.5302" y1="39.3958" x2="13.5302" y2="12.834" gradientUnits="userSpaceOnUse">
<stop stop-color="#1153FC"/>
<stop offset="1" stop-color="#5581F1"/>
</linearGradient>
<linearGradient id="paint2_linear_103_162" x1="13.4478" y1="39.3886" x2="13.4478" y2="12.8259" gradientUnits="userSpaceOnUse">
<stop stop-color="#1153FC"/>
<stop offset="1" stop-color="#5581F1"/>
</linearGradient>
<linearGradient id="paint3_linear_103_162" x1="13.4555" y1="39.3894" x2="13.4555" y2="12.8257" gradientUnits="userSpaceOnUse">
<stop stop-color="#1153FC"/>
<stop offset="1" stop-color="#5581F1"/>
</linearGradient>
<linearGradient id="paint4_linear_103_162" x1="13.4953" y1="39.3753" x2="13.4953" y2="12.8252" gradientUnits="userSpaceOnUse">
<stop stop-color="#1153FC"/>
<stop offset="1" stop-color="#5581F1"/>
</linearGradient>
<linearGradient id="paint5_linear_103_162" x1="13.5074" y1="39.3979" x2="13.5074" y2="12.8366" gradientUnits="userSpaceOnUse">
<stop stop-color="#1153FC"/>
<stop offset="1" stop-color="#5581F1"/>
</linearGradient>

<linearGradient id="paint0_linear_103_178" x1="10.2922" y1="20.4957" x2="40.6661" y2="20.4957" gradientUnits="userSpaceOnUse">
<stop stop-color="#403BEB"/>
<stop offset="1" stop-color="#22B7A0"/>
</linearGradient>
<linearGradient id="paint1_linear_103_178" x1="-2.13615e-08" y1="17.2344" x2="34.9742" y2="17.2344" gradientUnits="userSpaceOnUse">
<stop stop-color="#403BEB"/>
<stop offset="1" stop-color="#22B7A0"/>
</linearGradient>
<linearGradient id="paint2_linear_103_178" x1="2.68852" y1="15.9241" x2="30.0648" y2="15.9241" gradientUnits="userSpaceOnUse">
<stop stop-color="#403BEB"/>
<stop offset="1" stop-color="#22B7A0"/>
</linearGradient>
</defs><symbol id="icon-arrow-all-prod" viewBox="0 0 12 12">
<path d="M11.4125 1.47398C11.4125 1.15797 11.1564 0.901788 10.8403 0.901788L5.69058 0.901788C5.37457 0.901788 5.11839 1.15797 5.11839 1.47398C5.11839 1.79 5.37457 2.04618 5.69058 2.04618H10.2682V6.62375C10.2682 6.93976 10.5243 7.19594 10.8403 7.19594C11.1564 7.19594 11.4125 6.93976 11.4125 6.62375L11.4125 1.47398ZM1.54749 11.5761L11.245 1.87859L10.4357 1.06938L0.73828 10.7668L1.54749 11.5761Z" fill="currentColor"/>
</symbol><symbol id="icon-arrow-filter" viewBox="0 0 11 7">
<path d="M4.99108 6.00892C5.27215 6.28998 5.72785 6.28998 6.00892 6.00892L10.5892 1.42868C10.8702 1.14761 10.8702 0.691911 10.5892 0.410845C10.3081 0.129779 9.85239 0.129779 9.57132 0.410845L5.5 4.48217L1.42868 0.410845C1.14761 0.129779 0.691911 0.129779 0.410845 0.410845C0.129779 0.691911 0.129779 1.14761 0.410845 1.42868L4.99108 6.00892ZM4.78028 5V5.5H6.21972V5H4.78028Z" fill="currentColor"/>
</symbol><symbol id="icon-chat" viewBox="0 0 26 26">
<path d="M10.5 0.75H15.5C18.1522 0.75 20.6957 1.80357 22.5711 3.67893C24.4464 5.5543 25.5 8.09784 25.5 10.75C25.5 13.4022 24.4464 15.9457 22.5711 17.8211C20.6957 19.6964 18.1522 20.75 15.5 20.75V25.125C9.25 22.625 0.5 18.875 0.5 10.75C0.5 8.09784 1.55357 5.5543 3.42893 3.67893C5.3043 1.80357 7.84784 0.75 10.5 0.75ZM13 18.25H15.5C16.4849 18.25 17.4602 18.056 18.3701 17.6791C19.2801 17.3022 20.1069 16.7497 20.8033 16.0533C21.4997 15.3569 22.0522 14.5301 22.4291 13.6201C22.806 12.7102 23 11.7349 23 10.75C23 9.76509 22.806 8.78982 22.4291 7.87987C22.0522 6.96993 21.4997 6.14314 20.8033 5.4467C20.1069 4.75026 19.2801 4.19781 18.3701 3.8209C17.4602 3.44399 16.4849 3.25 15.5 3.25H10.5C8.51088 3.25 6.60322 4.04018 5.1967 5.4467C3.79018 6.85322 3 8.76088 3 10.75C3 15.2625 6.0775 18.2075 13 21.35V18.25Z" fill="currentColor"/>
</symbol><symbol id="icon-cup" viewBox="0 0 28 24">
<path d="M15.25 18.1725V20.75H21.5V23.25H6.5V20.75H12.75V18.1725C10.3334 17.8678 8.11102 16.6916 6.5 14.8647C4.88898 13.0378 4.00004 10.6858 4 8.25V0.75H24V8.25C24 10.6858 23.111 13.0378 21.5 14.8647C19.889 16.6916 17.6666 17.8678 15.25 18.1725ZM6.5 3.25V8.25C6.5 10.2391 7.29018 12.1468 8.6967 13.5533C10.1032 14.9598 12.0109 15.75 14 15.75C15.9891 15.75 17.8968 14.9598 19.3033 13.5533C20.7098 12.1468 21.5 10.2391 21.5 8.25V3.25H6.5ZM0.25 3.25H2.75V8.25H0.25V3.25ZM25.25 3.25H27.75V8.25H25.25V3.25Z" fill="currentColor"/>
</symbol><symbol id="icon-customers" viewBox="0 0 26 26">
<path d="M13 25.5C6.09625 25.5 0.5 19.9038 0.5 13C0.5 6.09625 6.09625 0.5 13 0.5C19.9038 0.5 25.5 6.09625 25.5 13C25.5 19.9038 19.9038 25.5 13 25.5ZM13 23C15.6522 23 18.1957 21.9464 20.0711 20.0711C21.9464 18.1957 23 15.6522 23 13C23 10.3478 21.9464 7.8043 20.0711 5.92893C18.1957 4.05357 15.6522 3 13 3C10.3478 3 7.8043 4.05357 5.92893 5.92893C4.05357 7.8043 3 10.3478 3 13C3 15.6522 4.05357 18.1957 5.92893 20.0711C7.8043 21.9464 10.3478 23 13 23V23ZM6.75 13H9.25C9.25 13.9946 9.64509 14.9484 10.3483 15.6517C11.0516 16.3549 12.0054 16.75 13 16.75C13.9946 16.75 14.9484 16.3549 15.6517 15.6517C16.3549 14.9484 16.75 13.9946 16.75 13H19.25C19.25 14.6576 18.5915 16.2473 17.4194 17.4194C16.2473 18.5915 14.6576 19.25 13 19.25C11.3424 19.25 9.75269 18.5915 8.58058 17.4194C7.40848 16.2473 6.75 14.6576 6.75 13V13Z" fill="currentColor"/>
</symbol><symbol id="icon-filter" viewBox="0 0 16 16">
<path d="M16 0V1.77778H15.1111L10.6667 8.44444V16H5.33333V8.44444L0.888889 1.77778H0V0H16ZM3.02578 1.77778L7.11111 7.90578V14.2222H8.88889V7.90578L12.9742 1.77778H3.02578Z" fill="currentColor"/>
</symbol><symbol id="icon-headphones" viewBox="0 0 26 27">
<path d="M25.5 19.2525C25.4994 20.9619 24.9151 22.6199 23.8438 23.952C22.7724 25.2841 21.2783 26.2104 19.6088 26.5775L18.8113 24.185C19.5415 24.0647 20.2361 23.7839 20.8447 23.3629C21.4534 22.9418 21.9611 22.3909 22.3313 21.75H19.25C18.587 21.75 17.9511 21.4866 17.4822 21.0178C17.0134 20.5489 16.75 19.913 16.75 19.25V14.25C16.75 13.587 17.0134 12.9511 17.4822 12.4822C17.9511 12.0134 18.587 11.75 19.25 11.75H22.9225C22.6175 9.33362 21.4412 7.11159 19.6143 5.50084C17.7874 3.8901 15.4356 3.00135 13 3.00135C10.5644 3.00135 8.21258 3.8901 6.38572 5.50084C4.55885 7.11159 3.38254 9.33362 3.0775 11.75H6.75C7.41304 11.75 8.04893 12.0134 8.51777 12.4822C8.98661 12.9511 9.25 13.587 9.25 14.25V19.25C9.25 19.913 8.98661 20.5489 8.51777 21.0178C8.04893 21.4866 7.41304 21.75 6.75 21.75H3C2.33696 21.75 1.70107 21.4866 1.23223 21.0178C0.763392 20.5489 0.5 19.913 0.5 19.25V13C0.5 6.09625 6.09625 0.5 13 0.5C19.9038 0.5 25.5 6.09625 25.5 13V19.2525ZM23 19.25V14.25H19.25V19.25H23ZM3 14.25V19.25H6.75V14.25H3Z" fill="currentColor"/>
</symbol><symbol id="icon-home" viewBox="0 0 24 25">
<path d="M13.25 21.75H20.75V10.4725L12 3.6675L3.25 10.4725V21.75H10.75V14.25H13.25V21.75ZM23.25 23C23.25 23.3315 23.1183 23.6495 22.8839 23.8839C22.6495 24.1183 22.3315 24.25 22 24.25H2C1.66848 24.25 1.35054 24.1183 1.11612 23.8839C0.881696 23.6495 0.75 23.3315 0.75 23V9.8625C0.749868 9.67202 0.793271 9.48403 0.876895 9.31288C0.960519 9.14173 1.08215 8.99196 1.2325 8.875L11.2325 1.0975C11.4519 0.926811 11.722 0.834137 12 0.834137C12.278 0.834137 12.5481 0.926811 12.7675 1.0975L22.7675 8.875C22.9179 8.99196 23.0395 9.14173 23.1231 9.31288C23.2067 9.48403 23.2501 9.67202 23.25 9.8625V23Z" fill="currentColor"/>
</symbol><symbol id="icon-logo" viewBox="0 0 136 35">
<path fill-rule="evenodd" clip-rule="evenodd" d="M102.23 8.57467C104.152 8.57467 105.71 7.02626 105.71 5.11618C105.71 3.2061 104.152 1.65769 102.23 1.65769C100.308 1.65769 98.7507 3.2061 98.7507 5.11618C98.7507 7.02626 100.308 8.57467 102.23 8.57467ZM134.432 0H131.12C130.687 0 130.271 0.289147 130.207 0.634686L129.007 9.66145C128.975 9.90024 129.147 10.0957 129.39 10.0957H131.821C132.247 10.0957 132.709 9.77112 132.851 9.37056L135.655 1.45935C136.068 0.625741 135.544 0 134.432 0ZM129.532 29.4798C129.527 29.481 129.374 29.5146 129.33 29.5244C129.252 29.5411 129.188 29.5549 129.127 29.5675C128.809 29.6327 128.555 29.67 128.289 29.6848C127.115 29.7495 126.242 28.6237 126.407 27.2944L126.469 26.693C126.778 24.455 127.005 22.7633 127.212 21.1093C127.481 18.9634 127.569 17.8674 127.516 16.6224C127.42 14.3409 126.265 12.7548 124.141 12.0864C123.016 11.7322 121.803 11.5243 120.619 11.4819C117.095 11.3563 113.529 12.0351 109.461 13.4635C108.581 13.7723 108.11 14.3549 108.018 15.2657C108 15.4487 107.976 15.6037 107.922 15.9309C107.886 16.1423 107.871 16.2362 107.855 16.3523C107.53 18.7046 107.267 20.6051 106.686 24.8115C106.565 25.6834 106.517 26.0361 106.452 26.5034C106.299 27.6129 106.053 28.7508 106.053 28.7508C105.806 30.0264 104.718 29.8394 104.331 29.8606C103.198 29.9222 102.563 29.3657 102.518 28.2558C102.498 27.7932 102.517 27.3127 102.569 26.7035C103.884 17.6372 104.52 13.1979 104.599 12.4335C104.656 11.892 104.499 11.7123 103.968 11.7049C102.035 11.6773 100.313 11.6806 98.6692 11.7205C97.9643 11.7376 97.6979 11.9906 97.5935 12.7305C97.5322 13.1645 97.3692 14.2863 97.0516 16.4616C96.9914 16.8732 96.9272 17.3135 96.8371 17.9303C96.7804 18.318 96.7804 18.318 96.7223 18.7158C96.6635 19.118 96.639 19.2864 96.6035 19.5284C96.4055 20.8851 96.2534 21.925 96.1049 22.9438C96.0981 22.9908 96.0981 22.9908 96.0912 23.0379C96.0005 23.6605 95.6698 26.1551 95.6698 26.1551C95.5286 27.2094 95.5164 28.219 95.6163 29.1489C95.4126 29.3324 92.5305 31.7905 90.1992 25.9922C90.1434 25.8533 90.0895 25.724 90.0372 25.604C89.9204 25.3048 89.7935 24.9795 89.6463 24.6026C89.568 24.4014 89.2819 23.6677 89.3019 23.7188C89.1636 23.3644 89.0598 23.0982 88.9583 22.8382C88.9123 22.7201 88.9534 22.5864 89.0578 22.514C89.156 22.4458 89.2545 22.3793 89.3869 22.291C89.4226 22.2673 89.5458 22.1852 89.5462 22.185C89.6089 22.1434 89.6561 22.1119 89.7016 22.0812C89.9565 21.9097 90.1359 21.7806 90.3028 21.6448C91.9009 20.3467 93.0027 18.5848 93.7687 16.2835C94.2432 14.8585 94.4579 13.6288 94.3923 12.4205C94.359 11.8068 94.1274 11.526 93.6705 11.5186C92.0255 11.492 90.3222 11.4982 88.5218 11.5348C88.0928 11.5435 87.8741 11.7574 87.7971 12.2412C87.7619 12.4613 87.7413 12.6892 87.7233 13.0109C87.7199 13.0739 87.7174 13.1229 87.7099 13.2685C87.6218 15.0075 87.114 16.5438 86.1536 17.8801C85.0882 19.3624 82.8172 20.209 81.1252 19.7466C80.9923 19.7104 80.9067 19.5823 80.9245 19.4466C81.0394 18.5737 81.1046 18.0782 81.3479 16.2296C81.7856 12.9031 82.005 11.2324 82.2595 9.28578C82.2995 8.97874 82.3367 8.69679 82.4148 8.10449C82.7064 5.89418 82.8315 4.91045 82.9704 3.68036C83.0482 2.99162 82.8717 2.81175 82.177 2.86075C80.3325 2.99103 78.7227 3.11879 77.1864 3.25957C76.2528 3.34513 76.0246 3.56797 75.8622 4.55616C75.7934 4.97404 75.7478 5.31141 75.6486 6.09524C75.6028 6.45944 75.5797 6.63873 75.5509 6.85009C74.8556 11.9661 74.3701 15.5344 73.8833 19.1073C73.7219 20.2926 73.5922 21.2425 73.3008 23.3743C73.2914 23.4419 73.2914 23.4419 73.2822 23.5096C72.9172 26.1802 72.7407 27.4743 72.5315 29.0126C72.5074 29.1899 72.4972 29.2642 72.4833 29.3672C72.4674 29.4841 72.3783 29.5778 72.2617 29.6C71.8444 29.6795 71.5304 29.7244 71.2173 29.7414C70.074 29.8026 69.4322 29.2482 69.3859 28.1401C69.3663 27.6693 69.3844 27.2053 69.4392 26.5057C69.7431 24.3473 69.9676 22.6988 70.1729 21.0914C70.4501 18.9218 70.5401 17.8463 70.4903 16.6035C70.3976 14.2987 69.2128 12.6994 67.0274 12.0334C65.8623 11.6783 64.592 11.4737 63.3338 11.4337C59.8037 11.3215 56.2332 11.9952 52.1124 13.4062C51.2028 13.7177 50.7197 14.3065 50.6092 15.2459C50.5318 15.9037 50.4574 16.431 50.282 17.6086C50.2017 18.1475 50.1664 18.3868 50.1237 18.6859C49.4529 23.3943 49.0636 26.1281 48.6438 29.0833C48.6264 29.2053 48.6083 29.3324 48.5882 29.4738C48.5717 29.5893 48.4837 29.6817 48.3686 29.7044C47.9125 29.7944 47.5902 29.8427 47.2618 29.8606C46.1293 29.9222 45.4941 29.3657 45.4485 28.2558C45.4354 27.9382 45.4401 27.6061 45.46 27.2269C45.4736 26.9704 45.5437 26.0758 45.5506 25.9867C45.5506 25.9867 45.6078 25.4341 45.6383 25.1632C45.8566 23.2247 46.0766 21.6818 46.6083 18.1984C46.8949 16.3212 47.022 15.4705 47.17 14.4183C47.295 13.5291 46.9878 13.0517 45.9847 12.7095C45.0529 12.3913 44.6194 12.2517 44.0871 12.1096C41.0926 11.3108 38.142 11.2305 35.2413 11.898C31.393 12.7835 28.673 14.9962 27.1151 18.5255C26.7505 19.3515 26.4617 20.1923 26.2423 21.0463C25.126 17.5081 22.2144 15.607 22.2144 15.607C22.2144 15.607 25.3339 13.4779 25.6385 8.68123C25.9429 3.88434 20.5955 0.00213895 13.9238 0.00213895C5.70489 0.00213895 0.740884 3.44838 0.235628 3.72217C0.143158 3.77214 -0.0355138 3.87695 0.00621536 4.02629L1.30942 8.13133C1.38387 8.40783 1.40209 8.62873 1.74846 8.47336C1.74846 8.47336 4.98903 7.16394 5.70489 7.16394C5.70489 7.16394 1.97415 32.8823 2.06466 32.8823C1.97415 33.6467 2.06466 33.8616 3.09261 34.1641C3.50226 34.2849 21.8206 38.2808 25.9306 27.6668C25.9488 27.7906 25.9674 27.9145 25.9884 28.0389C26.2921 29.8557 26.9962 31.3193 28.1848 32.4312C30.0449 34.1713 32.3583 34.6678 35.2954 34.1696C36.3278 33.9946 37.3011 33.5275 38.2922 32.7721C38.4172 32.677 38.5967 32.7046 38.6866 32.8331C39.4377 33.9051 40.5726 34.506 42.7898 34.5017C44.9932 34.4887 46.4823 33.9963 47.8635 33.5298C47.9979 33.4843 48.1452 33.5479 48.2038 33.6766C48.3013 33.8911 47.9816 34.3424 48.7484 34.3424C50.6503 34.3424 52.3371 34.3749 53.9487 34.3409C54.6691 34.3257 54.9296 34.0836 55.0462 33.3377C55.18 32.4827 55.2952 31.6917 55.4882 30.3222C55.4997 30.2397 55.5091 30.1728 55.5393 29.9595C55.6567 29.1251 55.7507 28.4566 55.9754 26.8569C56.6203 22.2642 56.9205 20.1406 57.2935 17.5485C57.3295 17.2965 57.5556 17.0113 57.7939 16.915C58.8857 16.4729 60.037 16.2772 61.2182 16.3323C62.4027 16.3875 63.1328 16.9893 63.3544 18.093C63.4326 18.4817 63.4543 18.865 63.4083 19.2142C63.1232 21.374 62.8417 23.4556 62.462 26.3015C62.462 26.3015 61.2505 33.5129 67.0477 34.3712C69.9558 34.3837 76.4707 34.4605 78.0776 34.4222C78.6555 34.4086 78.9147 34.1474 79.0121 33.4869C79.1229 32.7361 79.2082 32.1111 79.389 30.7424C79.4454 30.3163 79.4705 30.126 79.5022 29.8888C79.5898 29.2342 79.6799 28.5564 79.7934 27.7014C79.8245 27.4657 80.0533 25.7382 80.1209 25.2293C80.1391 25.093 80.2561 24.9909 80.3946 24.9909H82.5357C82.6492 24.9909 82.751 25.06 82.7926 25.1648C82.799 25.1815 82.8641 25.3417 82.8852 25.396C82.8944 25.4193 82.9031 25.4417 82.9113 25.4635C83.4242 26.4546 84.9229 29.3538 85.3104 30.1394C85.6942 30.9178 89.0382 35.8319 93.4586 34.4142C94.158 34.275 95.5762 33.817 96.5575 32.3318C97.2694 33.6134 98.3205 34.4175 99.5843 34.4856V34.5497H109.706V34.4826C110.238 34.463 111.424 34.4086 111.608 34.3737C111.963 34.3065 112.176 34.0784 112.262 33.7538C112.341 33.4569 112.399 33.1806 112.436 32.9158C112.606 31.6892 112.753 30.6282 113.041 28.5447C113.053 28.4541 113.053 28.4541 113.066 28.3633C113.809 22.9918 114.141 20.6016 114.56 17.6168C114.596 17.3613 114.802 17.0665 115.035 16.9699C116.117 16.5207 117.263 16.3235 118.449 16.3787C119.408 16.4235 120.115 16.8629 120.397 17.7061C120.565 18.2077 120.632 18.7538 120.572 19.2339C120.316 21.2812 120.095 22.9556 119.637 26.3256C119.629 26.3861 119.621 26.4472 119.613 26.5086C119.464 27.7298 118.989 33.952 124.703 34.4259C125.83 34.4342 126.312 34.4136 126.856 34.3216C127.603 34.1954 128.15 33.9364 128.585 33.4773C129.473 32.5405 130.133 31.2478 130.133 30.0264C130.133 29.4798 129.663 29.451 129.532 29.4798ZM13.089 6.10049C13.099 6.02893 13.1521 5.9704 13.2236 5.95212C13.2477 5.9459 13.2918 5.93559 13.3541 5.92256C13.4561 5.90137 13.5729 5.87998 13.702 5.86015C14.5497 5.72987 15.4503 5.72423 16.2998 5.92704C16.9175 6.07443 19.6166 6.7062 18.755 10.1365C17.8931 13.567 13.5118 13.6714 12.8574 13.6354C12.6915 13.6263 12.5395 13.6166 12.4045 13.6068C12.3571 13.6033 12.3151 13.6002 12.2793 13.5973C12.2575 13.5956 12.2425 13.5944 12.2346 13.5936C12.131 13.5847 12.056 13.4927 12.0701 13.3918L13.089 6.10049ZM20.2108 24.6063C19.0621 29.7802 12.0573 29.2014 11.1371 29.1508C10.904 29.138 10.6903 29.1242 10.5004 29.1106C10.434 29.1057 10.375 29.1012 10.3245 29.0971C10.2939 29.0946 10.2728 29.0929 10.2618 29.0919C10.116 29.0795 10.0108 28.9501 10.0306 28.8082L11.4627 18.5589C11.4768 18.4584 11.5515 18.3759 11.652 18.3503C11.6859 18.3417 11.748 18.3271 11.8352 18.309C11.979 18.2789 12.1429 18.249 12.3245 18.2212C13.5163 18.038 14.7823 18.0302 15.9761 18.3151C16.8446 18.5224 21.3594 19.4324 20.2108 24.6063ZM39.8407 18.3487C39.7044 19.2039 38.8092 26.2271 38.5175 28.1156C38.43 28.6822 37.9088 29.1288 37.3652 29.2908C36.2585 29.6206 35.465 29.6661 34.6518 29.325C33.7816 28.9601 33.2399 28.2433 33.0289 27.2952C32.3261 24.1367 32.7887 21.2126 34.4772 18.5922C35.3565 17.2281 36.8374 16.4892 38.3784 16.5942C39.3829 16.6628 39.5803 16.6978 39.7888 16.9458C40 17.1972 39.9922 17.3971 39.8407 18.3487Z" fill="#52B3F2"/>
</symbol><symbol id="icon-logout" viewBox="0 0 28 28">
<path d="M2 8V3C2 2.44772 2.44772 2 3 2H25C25.5523 2 26 2.44772 26 3V25C26 25.5523 25.5523 26 25 26H3C2.44772 26 2 25.5523 2 25V20" stroke="currentColor" stroke-width="2.5"/>
<path d="M19 14H2M2 14L6 10M2 14L6 18" stroke="currentColor" stroke-width="2.5" stroke-linecap="round" stroke-linejoin="round"/>
</symbol><symbol id="icon-pencil" viewBox="0 0 24 24">
<path d="M16.66 9.10748L14.8925 7.33998L3.25 18.9825V20.75H5.0175L16.66 9.10748ZM18.4275 7.33998L20.195 5.57248L18.4275 3.80498L16.66 5.57248L18.4275 7.33998ZM6.0525 23.25H0.75V17.9462L17.5437 1.15248C17.7782 0.918143 18.096 0.786499 18.4275 0.786499C18.759 0.786499 19.0768 0.918143 19.3113 1.15248L22.8475 4.68873C23.0818 4.92314 23.2135 5.24103 23.2135 5.57248C23.2135 5.90394 23.0818 6.22182 22.8475 6.45623L6.05375 23.25H6.0525Z" fill="currentColor"/>
</symbol><symbol id="icon-plus" viewBox="0 0 17 16">
<path d="M9 8H1M9 16V8V16ZM9 8V0V8ZM9 8H17H9Z" stroke="currentColor" stroke-width="2" stroke-linecap="round"/>
</symbol><symbol id="icon-product-a" viewBox="0 0 42 28">
<path d="M33.985 6.58858H38.6549C38.8015 6.58822 38.9466 6.61682 39.082 6.67273C39.2174 6.72865 39.3405 6.81078 39.4441 6.91439C39.5478 7.01802 39.6298 7.14109 39.6857 7.27654C39.7417 7.41198 39.7701 7.55714 39.7698 7.70367L39.7679 19.2756C39.7684 19.4222 39.7398 19.5674 39.6838 19.7029C39.628 19.8385 39.5459 19.9615 39.4421 20.0651C39.3386 20.1687 39.2155 20.2509 39.0799 20.3068C38.9444 20.3626 38.7992 20.3912 38.6526 20.3907H33.983V22.6209L38.6571 22.6168C39.5436 22.6166 40.3939 22.2643 41.0208 21.6375C41.6475 21.0106 41.9998 20.1604 42 19.2739V7.70351C42.0002 7.26476 41.9139 6.83028 41.746 6.42489C41.5782 6.01952 41.332 5.65117 41.0217 5.34092C40.7115 5.03067 40.3432 4.7846 39.9378 4.61675C39.5324 4.44891 39.098 4.36258 38.6592 4.3627L33.983 4.36063L33.985 6.58858Z" fill="#454EEC"/>
<path d="M32.0921 5.64372L32.09 3.13508C32.0938 1.29364 30.5946 0 28.7492 0H13.2555C11.4077 0 9.90623 1.41609 9.90814 3.25992L9.90974 4.98739H9.90814L9.91022 7.7585C9.90778 8.65056 10.2572 9.5076 10.8826 10.1437C11.508 10.7798 12.3591 11.1436 13.251 11.1562H28.7447C30.5924 11.1562 32.0938 9.47782 32.0919 7.63366L32.0905 5.64372H32.0921ZM29.8595 7.71998C29.8603 7.86686 29.8323 8.01247 29.7767 8.14848C29.7212 8.28449 29.6395 8.40822 29.5361 8.5126C29.4328 8.61698 29.3099 8.69994 29.1744 8.75676C29.039 8.81357 28.8937 8.84311 28.7468 8.8437L13.251 8.85138C12.6375 8.8469 12.1407 8.21199 12.1359 7.59833V5.64372H12.138L12.1404 3.07386C12.1377 2.45813 12.6369 2.02926 13.2531 2.03166L28.7488 2.06443C29.0434 2.06572 29.3256 2.183 29.5343 2.39088C29.7431 2.59875 29.8615 2.88048 29.8639 3.17504V4.98739H29.8619L29.8595 7.71998Z" fill="#454EEC"/>
<path d="M28.0223 4.3584H13.9958V6.59482H28.0223V4.3584Z" fill="#454EEC"/>
<path d="M28.0306 20.4133H14.004V22.6497H28.0306V20.4133Z" fill="#454EEC"/>
<path d="M32.1178 21.9187L32.1155 19.2788C32.1195 17.4372 30.6203 16.0124 28.7747 16.0124H13.2811C12.8427 16.0103 12.4083 16.0947 12.0026 16.2608C11.597 16.4269 11.2281 16.6714 10.9172 16.9804C10.6062 17.2894 10.3593 17.6567 10.1906 18.0611C10.0218 18.4657 9.9346 18.8997 9.93387 19.338L9.93531 21.1312H9.93387L9.93595 23.771C9.93195 25.6125 11.4313 27.0373 13.2768 27.0373H28.7704C29.2087 27.0394 29.643 26.955 30.0487 26.7891C30.4542 26.623 30.8232 26.3785 31.1341 26.0696C31.4451 25.7608 31.6921 25.3936 31.8609 24.9891C32.0295 24.5846 32.117 24.1508 32.1178 23.7125L32.1162 21.9194L32.1178 21.9187ZM29.8852 23.7947C29.8853 23.9398 29.8566 24.0834 29.8005 24.2172C29.7442 24.351 29.6619 24.4721 29.5583 24.5736C29.4546 24.6751 29.3316 24.7549 29.1967 24.8081C29.0618 24.8613 28.9175 24.8872 28.7725 24.8839L13.2768 24.8743C12.9806 24.8692 12.6982 24.7483 12.4898 24.5378C12.2815 24.3273 12.1637 24.0436 12.1617 23.7474V21.9187H12.1639L12.1663 19.2143C12.1657 19.0682 12.1941 18.9233 12.2498 18.7883C12.3056 18.653 12.3876 18.5304 12.4911 18.4272C12.5945 18.3241 12.7175 18.2424 12.8527 18.1869C12.988 18.1316 13.1328 18.1036 13.279 18.1046L28.7747 18.1038C29.0744 18.1169 29.3577 18.2451 29.5653 18.4617C29.773 18.6783 29.8892 18.9667 29.8897 19.2667V21.1312H29.8876L29.8852 23.7947Z" fill="#454EEC"/>
<path d="M8.01522 20.3927H3.34528C3.19877 20.393 3.05361 20.3645 2.91817 20.3086C2.78273 20.2526 2.65967 20.1706 2.55605 20.0669C2.45246 19.9633 2.37034 19.8402 2.31444 19.7048C2.25855 19.5694 2.22996 19.4243 2.23035 19.2777L2.23243 7.70479C2.23198 7.55824 2.26053 7.41303 2.31641 7.27755C2.37229 7.14205 2.45441 7.01895 2.55804 6.91532C2.66168 6.81167 2.78478 6.72956 2.92027 6.67368C3.05575 6.6178 3.20096 6.58925 3.34752 6.58969H8.01714V4.36063L3.34289 4.36478C2.45636 4.36501 1.60621 4.71726 0.979342 5.34413C0.352475 5.97099 0.000211879 6.82115 0 7.70767V19.2777C0 20.1638 0.35198 21.0135 0.978502 21.6401C1.60503 22.2665 2.45477 22.6185 3.34081 22.6185L8.01698 22.6206L8.01522 20.3927Z" fill="#454EEC"/>
</symbol><symbol id="icon-product-b" viewBox="0 0 30 36">
<path d="M16.1728 15.3015C15.5147 15.3015 14.8836 15.0401 14.4182 14.5747C13.9529 14.1094 13.6915 13.4782 13.6915 12.8202C13.6915 12.1621 13.9529 11.5309 14.4182 11.0656C14.8836 10.6002 15.5147 10.3388 16.1728 10.3388C18.2561 10.3365 20.2533 9.50796 21.7264 8.03493C23.1994 6.56188 24.0282 4.56467 24.0305 2.48143C24.0305 1.82334 24.2919 1.1922 24.7573 0.726853C25.2226 0.261512 25.8538 8.39233e-05 26.5118 8.39233e-05C27.17 8.39233e-05 27.8012 0.261512 28.2664 0.726853C28.7318 1.1922 28.9932 1.82334 28.9932 2.48143C28.9893 5.88039 27.6374 9.13903 25.234 11.5424C22.8305 13.9458 19.5718 15.2977 16.1728 15.3015Z" fill="#EC6C0C"/>
<path d="M2.48152 35.9794C1.82341 35.9794 1.19225 35.718 0.726889 35.2526C0.261531 34.7872 9.15527e-05 34.1562 9.15527e-05 33.498C0.00391299 30.099 1.35587 26.8403 3.75933 24.4369C6.16281 22.0334 9.4215 20.6815 12.8205 20.6778C13.4786 20.6778 14.1097 20.9392 14.5751 21.4046C15.0404 21.8698 15.3018 22.501 15.3018 23.1592C15.3018 23.8172 15.0404 24.4484 14.5751 24.9137C14.1097 25.3791 13.4786 25.6405 12.8205 25.6405C10.7372 25.6428 8.73999 26.4714 7.2669 27.9444C5.7938 29.4176 4.96516 31.4147 4.96278 33.498C4.96278 34.156 4.70137 34.7872 4.23605 35.2526C3.77073 35.718 3.13961 35.9794 2.48152 35.9794Z" fill="#BE3818"/>
<path d="M16.1728 35.9795C15.5183 35.974 14.8924 35.7102 14.4315 35.2455C13.9705 34.7808 13.7119 34.1526 13.7119 33.498C13.7119 32.8436 13.9705 32.2154 14.4315 31.7507C14.8924 31.286 15.5183 31.0222 16.1728 31.0168C17.2047 31.0168 18.2265 30.8134 19.1798 30.4187C20.1332 30.0238 20.9993 29.4449 21.729 28.7154C22.4587 27.9857 23.0374 27.1194 23.4323 26.1662C23.8272 25.2128 24.0304 24.1909 24.0304 23.159C24.0304 22.1272 23.8272 21.1055 23.4323 20.1521C23.0374 19.1988 22.4587 18.3326 21.729 17.6029C20.9993 16.8733 20.1332 16.2945 19.1798 15.8996C18.2265 15.5047 17.2047 15.3015 16.1728 15.3015C15.5147 15.3015 14.8836 15.0401 14.4182 14.5747C13.9529 14.1094 13.6915 13.4782 13.6915 12.8201C13.6915 12.162 13.9529 11.5309 14.4182 11.0656C14.8836 10.6002 15.5147 10.3388 16.1728 10.3388C17.8603 10.3327 19.5324 10.6597 21.0932 11.3013C22.6542 11.9428 24.073 12.8861 25.2683 14.0772C26.4637 15.2683 27.4124 16.6837 28.0595 18.2422C28.7067 19.8006 29.0399 21.4715 29.0399 23.159C29.0399 24.8466 28.7067 26.5176 28.0595 28.076C27.4124 29.6345 26.4637 31.0499 25.2683 32.2409C24.073 33.4321 22.6542 34.3755 21.0932 35.017C19.5324 35.6586 17.8603 35.9856 16.1728 35.9795Z" fill="url(#paint0_linear_103_147)"/>
<path d="M25.059 11.7133C26.3035 10.5194 27.2938 9.08608 27.9698 7.49954C28.646 5.91298 28.994 4.20603 28.9932 2.48143C28.9932 1.82334 28.7318 1.1922 28.2664 0.726853C27.8011 0.261512 27.17 8.39233e-05 26.5119 8.39233e-05C25.8537 8.39233e-05 25.2226 0.261512 24.7573 0.726853C24.2919 1.1922 24.0305 1.82334 24.0305 2.48143C24.0298 3.81618 23.6893 5.12877 23.0408 6.29543C22.3924 7.46209 21.4575 8.44437 20.3242 9.14964C22.0663 9.65903 23.6803 10.5329 25.059 11.7133Z" fill="url(#paint1_linear_103_147)"/>
<path d="M12.8208 25.6405C9.42067 25.6405 6.15979 24.2898 3.75554 21.8855C1.35128 19.4813 0.000579834 16.2204 0.000579834 12.8202C0.000579834 9.42009 1.35128 6.15922 3.75554 3.75496C6.15979 1.3507 9.42067 0 12.8208 0C13.4789 0 14.11 0.261427 14.5754 0.726769C15.0407 1.19211 15.3022 1.82325 15.3022 2.48134C15.3022 3.13944 15.0407 3.77057 14.5754 4.23592C14.11 4.70126 13.4789 4.96269 12.8208 4.96269C11.7889 4.96269 10.7672 5.16592 9.81387 5.5608C8.86054 5.95569 7.99434 6.53447 7.26469 7.2641C6.53505 7.99376 5.95627 8.85995 5.56139 9.81329C5.16651 10.7666 4.96327 11.7884 4.96327 12.8202C4.96327 13.8521 5.16651 14.8739 5.56139 15.8272C5.95627 16.7805 6.53505 17.6467 7.26469 18.3764C7.99434 19.1059 8.86054 19.6848 9.81387 20.0797C10.7672 20.4745 11.7889 20.6778 12.8208 20.6778C13.4789 20.6778 14.11 20.9392 14.5754 21.4046C15.0407 21.8698 15.3022 22.501 15.3022 23.159C15.3022 23.8172 15.0407 24.4484 14.5754 24.9137C14.11 25.3791 13.4789 25.6405 12.8208 25.6405Z" fill="url(#paint2_linear_103_147)"/>
<path d="M3.93446 24.266C2.68982 25.4599 1.69963 26.8932 1.02348 28.4798C0.347335 30.0664 -0.000784399 31.7733 8.49339e-05 33.498C-0.00262539 33.8257 0.0595559 34.1504 0.18304 34.454C0.306524 34.7573 0.48887 35.0333 0.719553 35.2659C0.950236 35.4986 1.22469 35.6832 1.52709 35.8091C1.82949 35.9351 2.15384 36 2.48143 36C2.80903 36 3.13339 35.9351 3.43578 35.8091C3.73818 35.6832 4.01263 35.4986 4.24331 35.2659C4.47399 35.0333 4.65633 34.7573 4.77982 34.454C4.9033 34.1504 4.96549 33.8257 4.96277 33.498C4.96343 32.1633 5.30406 30.8506 5.95254 29.6839C6.601 28.5172 7.53596 27.5349 8.6692 26.8296C6.92712 26.3202 5.31322 25.4463 3.93446 24.266Z" fill="#E64A1A"/>

</symbol><symbol id="icon-product-c" viewBox="0 0 28 40">
<path d="M13.4289 12.3476C14.8762 12.3353 16.3131 12.5943 17.6651 13.1113C16.6708 8.1201 15.1373 5.06739 13.4206 5.06967H13.4187C11.7024 5.07299 10.1776 8.12881 9.19598 13.1213C10.5462 12.6013 11.9818 12.3388 13.4287 12.3476H13.4289Z" fill="url(#paint0_linear_103_162)"/>
<path d="M13.5295 35.9391L11.3451 35.942C11.8962 39.3616 12.6753 40.0012 13.5365 40C14.3978 39.9988 15.1715 39.3568 15.7151 35.9364L13.5295 35.9391Z" fill="#454EEC"/>
<path d="M18.8407 26.2142C18.7512 23.6594 18.5745 20.9746 18.2846 18.1739C18.136 16.7386 17.9663 15.3415 17.7752 13.9827C14.9796 12.9028 11.8814 12.9064 9.0883 13.9929C8.90198 15.3647 8.73599 16.7749 8.59033 18.2235C8.30816 21.0453 8.13802 23.7513 8.0542 26.3274C5.64116 28.1118 3.97506 31.4963 3.98067 35.9362L7.99071 35.931C8.72437 35.931 9.16112 35.7443 9.16112 34.9959L9.15863 34.9818L13.4581 34.9764L17.8983 34.9708C17.8983 35.7632 18.3178 35.9182 19.0546 35.9171L23.0798 35.9122C23.0735 31.3873 21.3332 27.9448 18.8407 26.2142ZM13.4324 15.2882C13.7622 15.2878 14.0847 15.3852 14.3591 15.568C14.6336 15.7508 14.8476 16.011 14.9742 16.3155C15.1008 16.62 15.1343 16.9552 15.0704 17.2787C15.0065 17.6022 14.8481 17.8995 14.6152 18.133C14.3823 18.3665 14.0854 18.5257 13.7621 18.5905C13.4387 18.6552 13.1034 18.6226 12.7986 18.4968C12.4937 18.371 12.2331 18.1576 12.0495 17.8837C11.8659 17.6097 11.7677 17.2874 11.7673 16.9577C11.7668 16.5155 11.942 16.0913 12.2542 15.7782C12.5665 15.4651 12.9902 15.2889 13.4324 15.2882ZM13.4394 20.72C13.7692 20.7196 14.0916 20.8169 14.366 20.9999C14.6404 21.1827 14.8544 21.4426 14.981 21.7472C15.1075 22.0516 15.141 22.3869 15.077 22.7104C15.0131 23.0338 14.8547 23.331 14.6218 23.5644C14.389 23.798 14.0921 23.9571 13.7688 24.0219C13.4455 24.0866 13.1102 24.0538 12.8055 23.9281C12.5007 23.8024 12.24 23.5891 12.0565 23.315C11.873 23.0411 11.7748 22.7189 11.7744 22.3892C11.7739 21.947 11.949 21.5227 12.2613 21.2098C12.5735 20.8968 12.9973 20.7206 13.4394 20.72ZM13.4506 29.4862C13.1209 29.4866 12.7985 29.3893 12.5241 29.2063C12.2497 29.0235 12.0357 28.7635 11.9091 28.4589C11.7826 28.1545 11.7492 27.8192 11.8131 27.4958C11.877 27.1723 12.0354 26.8752 12.2683 26.6416C12.5011 26.4081 12.798 26.249 13.1213 26.1843C13.4446 26.1195 13.7799 26.1521 14.0846 26.2781C14.3894 26.4038 14.6501 26.6171 14.8336 26.8912C15.0171 27.165 15.1153 27.4873 15.1157 27.817C15.116 28.0359 15.0731 28.2527 14.9896 28.4552C14.906 28.6575 14.7835 28.8415 14.6288 28.9965C14.4742 29.1515 14.2905 29.2745 14.0883 29.3586C13.8862 29.4426 13.6694 29.4862 13.4504 29.4864L13.4506 29.4862Z" fill="url(#paint1_linear_103_162)"/>
<path d="M13.4342 15.9835C13.1789 15.9876 12.9354 16.0919 12.7564 16.274C12.5774 16.4561 12.4772 16.7013 12.4776 16.9567C12.4779 17.2121 12.5787 17.457 12.7582 17.6387C12.9376 17.8203 13.1814 17.924 13.4367 17.9274C13.6945 17.9271 13.9416 17.8244 14.1236 17.6419C14.3057 17.4594 14.4078 17.212 14.4074 16.9542C14.4071 16.6965 14.3044 16.4494 14.1219 16.2673C13.9394 16.0853 13.692 15.9832 13.4342 15.9835Z" fill="#454EEC"/>
<path d="M13.4413 21.4153H13.4394C13.1841 21.4192 12.9406 21.5236 12.7616 21.7057C12.5826 21.8879 12.4824 22.1332 12.4828 22.3884C12.4831 22.6438 12.5839 22.8888 12.7634 23.0704C12.9428 23.2521 13.1866 23.3559 13.4419 23.3592C13.6997 23.359 13.9468 23.2563 14.129 23.0737C14.3111 22.8913 14.4132 22.6438 14.4129 22.3861C14.4126 22.1282 14.31 21.8811 14.1275 21.6991C13.945 21.5169 13.6976 21.4148 13.4398 21.4151L13.4413 21.4153Z" fill="url(#paint2_linear_103_162)"/>
<path d="M13.4482 26.8472H13.4471C13.1918 26.8511 12.9483 26.9555 12.7693 27.1377C12.5903 27.3198 12.4901 27.5651 12.4905 27.8203C12.4908 28.0757 12.5916 28.3207 12.7711 28.5023C12.9506 28.684 13.1943 28.7878 13.4496 28.7911C13.7074 28.7907 13.9545 28.6882 14.1366 28.5056C14.3186 28.323 14.4207 28.0757 14.4205 27.818C14.4201 27.5603 14.3175 27.3132 14.135 27.131C13.9525 26.9491 13.7051 26.847 13.4474 26.8472H13.4482Z" fill="url(#paint3_linear_103_162)"/>
<path d="M18.6961 12.9964C17.8744 8.87265 16.2919 3.95528 13.4175 3.95528H13.389C11.0922 3.98205 9.3317 7.02791 8.15588 13.0086L8.15339 13.0215L7.82474 14.8918C7.69174 15.7377 7.57348 16.6157 7.47202 17.5094C7.45183 17.6871 7.43224 17.8662 7.4133 18.0468C7.28756 19.2456 7.18859 20.5046 7.11805 21.7972C6.76221 21.5227 6.4241 21.226 6.10574 20.9088C4.59704 19.402 3.58499 17.4701 3.20528 15.3719C2.82556 13.2738 3.09631 11.1097 3.98125 9.16974C4.86617 7.22979 6.32297 5.60673 8.15636 4.5181C9.98975 3.42947 12.1121 2.92734 14.239 3.07897C16.3658 3.2306 18.3955 4.02877 20.0559 5.36648C21.7164 6.70421 22.9281 8.51752 23.5288 10.5634C24.1297 12.6092 24.0906 14.7899 23.4172 16.8129C22.7435 18.836 21.4676 20.6048 19.7605 21.8823C19.6866 20.5565 19.5822 19.2636 19.4492 18.0316C19.4297 17.8518 19.4097 17.6727 19.3893 17.4942C19.2855 16.602 19.166 15.7238 19.0307 14.8799L18.6961 12.9964Z" fill="url(#paint4_linear_103_162)"/>
<path d="M13.4836 0.000423744C10.498 0.00846984 7.59894 1.00458 5.23889 2.83333C2.87882 4.6621 1.19048 7.22062 0.437286 10.1097C-0.315908 12.9988 -0.0915895 16.056 1.07524 18.8042C2.24208 21.5524 4.28579 23.8372 6.88751 25.3018C6.91517 24.7389 6.94588 24.1823 6.97964 23.6322C5.40604 22.6153 4.09007 21.247 3.13538 19.6348C2.05646 17.8069 1.48012 15.7261 1.46482 13.6035C1.44953 11.4809 1.99582 9.39208 3.0483 7.54876C4.10076 5.70543 5.62197 4.17322 7.45766 3.10748C9.29335 2.04176 11.3782 1.48044 13.5009 1.48044C15.6235 1.48044 17.7084 2.04176 19.5441 3.10748C21.3796 4.17322 22.9009 5.70543 23.9535 7.54876C25.0058 9.39208 25.5521 11.4809 25.5368 13.6035C25.5216 15.7261 24.9452 17.8069 23.8663 19.6348C22.8866 21.2893 21.5267 22.6863 19.8992 23.7104C19.933 24.2578 19.9642 24.8105 19.9928 25.3689C22.626 23.9262 24.7039 21.6478 25.8986 18.8934C27.0933 16.1388 27.3369 13.0648 26.5906 10.1565C25.8445 7.24817 24.151 4.67114 21.7776 2.83207C19.4043 0.992975 16.4862 -0.0034555 13.4836 9.00385e-06V0.000423744Z" fill="url(#paint5_linear_103_162)"/>

</symbol><symbol id="icon-product-d" viewBox="0 0 41 36">
<path d="M35.2591 5.08403L33.2731 15.143C33.269 15.1631 33.2705 15.1839 33.2774 15.2033C33.284 15.2226 33.296 15.2398 33.3116 15.253C33.3273 15.2663 33.3463 15.275 33.3664 15.2784C33.3867 15.2818 33.4075 15.2798 33.4266 15.2724L35.5499 14.4722C35.555 14.5016 35.5601 14.5322 35.5649 14.5605C36.0747 17.7732 35.7011 21.0641 34.4841 24.0807C33.267 27.0974 31.2523 29.7261 28.6558 31.6856C26.0591 33.6448 22.9785 34.861 19.7436 35.2037C16.5088 35.5465 13.2417 35.0029 10.2922 33.631C13.385 35.3463 16.8973 36.1583 20.4291 35.9745C23.9609 35.7907 27.3701 34.6187 30.268 32.5917C33.1662 30.5647 35.4367 27.7647 36.8208 24.5101C38.2049 21.2558 38.6472 17.6779 38.0969 14.1845L40.5423 14.383C40.5631 14.3846 40.5838 14.3806 40.6025 14.3713C40.6211 14.3621 40.6368 14.3479 40.6481 14.3304C40.6593 14.3129 40.6655 14.2927 40.6661 14.2719C40.6667 14.2511 40.6617 14.2306 40.6515 14.2124L35.4714 5.04925C35.4598 5.02891 35.4423 5.0126 35.4211 5.00253C35.4 4.99245 35.3763 4.98907 35.3533 4.99286C35.3301 4.99664 35.3088 5.00742 35.2919 5.0237C35.275 5.04001 35.2636 5.06107 35.2591 5.08403Z" fill="url(#paint0_linear_103_178)"/>
<path d="M31.4659 26.0697C29.8617 28.1101 27.8013 29.7461 25.4505 30.8463C23.0996 31.9465 20.5235 32.4804 17.9291 32.405C15.3345 32.3296 12.7938 31.6472 10.5107 30.4125C8.22767 29.1776 6.26581 27.4248 4.78263 25.2947C3.29944 23.1647 2.33619 20.7166 1.97017 18.1468C1.60417 15.5772 1.84559 12.9575 2.67508 10.498C3.50456 8.03856 4.899 5.80774 6.7465 3.98459C8.59401 2.16145 10.8431 0.79675 13.3134 0C10.1302 0.78235 7.231 2.44365 4.9465 4.79437C2.66199 7.1451 1.08418 10.0906 0.393083 13.2949C-0.29802 16.4991 -0.0745963 19.8331 1.03787 22.9164C2.15034 25.9999 4.10705 28.7085 6.68479 30.7334C9.26254 32.7583 12.3575 34.0179 15.6166 34.3685C18.8758 34.7191 22.1678 34.1467 25.1173 32.7164C28.0668 31.286 30.5548 29.0557 32.2977 26.2794C34.0404 23.5032 34.9679 20.293 34.9742 17.0151C34.7401 20.317 33.5176 23.472 31.4659 26.0697Z" fill="url(#paint1_linear_103_178)"/>
<path d="M27.8156 8.53587C26.7927 9.83876 25.6294 11.0251 24.3467 12.0735C24.3338 12.0841 24.3232 12.0976 24.316 12.1128C24.3089 12.128 24.3051 12.1446 24.3051 12.1615V28.4377C24.3051 28.5686 24.2635 28.6962 24.1863 28.8019C24.109 28.9078 24.0002 28.9862 23.8756 29.0261L23.8623 29.0304C23.7699 29.0601 23.6718 29.0674 23.576 29.0519C23.4802 29.0365 23.3893 28.9985 23.311 28.9414C23.2326 28.8841 23.1688 28.8092 23.1248 28.7228C23.0808 28.6362 23.0579 28.5405 23.0579 28.4435V13.269C23.0579 13.2481 23.0523 13.2276 23.0416 13.2098C23.0308 13.1919 23.0153 13.1774 22.9967 13.1677C22.9783 13.1581 22.9575 13.1537 22.9367 13.155C22.9159 13.1564 22.8958 13.1634 22.8787 13.1754C21.1804 14.3448 19.3289 15.2743 17.3766 15.9378C17.3541 15.9454 17.3345 15.9598 17.3205 15.9792C17.3067 15.9985 17.2992 16.0217 17.2992 16.0455V29.1907C17.2992 29.2819 17.2789 29.3721 17.2398 29.4545C17.2008 29.537 17.144 29.6098 17.0736 29.6678C17.003 29.7258 16.9205 29.7672 16.832 29.7896C16.7435 29.8117 16.6512 29.8141 16.5617 29.7964L16.5375 29.7916C16.3978 29.764 16.2722 29.6886 16.1819 29.5785C16.0917 29.4683 16.0426 29.3304 16.0429 29.188C16.0462 27.7727 16.0494 25.8671 16.0518 25.8685V16.4928C16.0518 16.4753 16.0478 16.4581 16.0401 16.4424C16.0323 16.4267 16.0211 16.413 16.0072 16.4024C15.9933 16.3917 15.9771 16.3845 15.96 16.3811C15.9428 16.3777 15.9251 16.3783 15.9082 16.3828L15.8518 16.3977C14.2591 16.8162 12.8499 17.7504 11.8442 19.0543C10.8385 20.3585 10.293 21.9588 10.2929 23.6055V25.7645C10.2932 25.885 10.2581 26.0032 10.192 26.104C10.1259 26.2049 10.0317 26.2842 9.921 26.3321C9.81029 26.3799 9.688 26.3944 9.56921 26.3734C9.45045 26.3526 9.34039 26.2973 9.2527 26.2145C6.80649 23.8633 5.25112 20.7369 4.85152 17.3676C4.45193 13.9983 5.23284 10.5948 7.06123 7.73668C8.88963 4.87861 11.6524 2.74287 14.8788 1.6933C18.1052 0.643723 21.5957 0.745253 24.7558 1.9806C22.2678 0.797821 19.5086 0.302331 16.7644 0.545526C14.0203 0.788719 11.3913 1.76173 9.14999 3.36363C6.90874 4.96554 5.13694 7.13795 4.01838 9.65554C2.89984 12.1731 2.4753 14.9441 2.78882 17.6812C3.10233 20.418 4.14248 23.0213 5.80137 25.2207C7.46025 27.4202 9.67741 29.1356 12.2229 30.1893C14.7683 31.2427 17.5493 31.596 20.2773 31.2125C23.0054 30.8289 25.5809 29.7222 27.7372 28.0075C28.4893 27.4884 29.191 26.8996 29.8325 26.2487L29.8999 26.1766C30.0061 26.0627 30.0651 25.9126 30.0648 25.7568V5.68087C30.0648 5.68087 30.0648 5.60925 30.0648 5.51427C30.0649 5.48888 30.0566 5.46415 30.0412 5.44398C30.0257 5.42383 30.0041 5.40937 29.9795 5.4029C29.9549 5.39644 29.9289 5.39833 29.9055 5.40827C29.8821 5.41822 29.8629 5.43564 29.8504 5.45783C29.2572 6.53761 28.5766 7.56705 27.8156 8.53587Z" fill="url(#paint2_linear_103_178)"/>

</symbol><symbol id="icon-products" viewBox="0 0 24 26">
<path d="M22 25.5H2C1.66848 25.5 1.35054 25.3683 1.11612 25.1339C0.881696 24.8995 0.75 24.5815 0.75 24.25V1.75C0.75 1.41848 0.881696 1.10054 1.11612 0.866116C1.35054 0.631696 1.66848 0.5 2 0.5H22C22.3315 0.5 22.6495 0.631696 22.8839 0.866116C23.1183 1.10054 23.25 1.41848 23.25 1.75V24.25C23.25 24.5815 23.1183 24.8995 22.8839 25.1339C22.6495 25.3683 22.3315 25.5 22 25.5ZM20.75 23V3H3.25V23H20.75ZM8.25 5.5V8C8.25 8.99456 8.64509 9.94839 9.34835 10.6517C10.0516 11.3549 11.0054 11.75 12 11.75C12.9946 11.75 13.9484 11.3549 14.6517 10.6517C15.3549 9.94839 15.75 8.99456 15.75 8V5.5H18.25V8C18.25 9.6576 17.5915 11.2473 16.4194 12.4194C15.2473 13.5915 13.6576 14.25 12 14.25C10.3424 14.25 8.75268 13.5915 7.58058 12.4194C6.40848 11.2473 5.75 9.6576 5.75 8V5.5H8.25Z" fill="currentColor"/>
</symbol><symbol id="icon-serach" viewBox="0 0 26 26">
<path d="M20.5388 18.7713L25.8925 24.1238L24.1238 25.8925L18.7713 20.5387C16.7797 22.1353 14.3025 23.0036 11.75 23C5.54003 23 0.500031 17.96 0.500031 11.75C0.500031 5.54 5.54003 0.5 11.75 0.5C17.96 0.5 23 5.54 23 11.75C23.0037 14.3025 22.1353 16.7797 20.5388 18.7713ZM18.0313 17.8438C19.6177 16.2124 20.5036 14.0255 20.5 11.75C20.5 6.915 16.5838 3 11.75 3C6.91503 3 3.00003 6.915 3.00003 11.75C3.00003 16.5837 6.91503 20.5 11.75 20.5C14.0256 20.5036 16.2124 19.6176 17.8438 18.0312L18.0313 17.8438Z" fill="currentColor"/>
</symbol><symbol id="icon-settings" viewBox="0 0 28 28">
<path d="M9.85748 4.00001L13.1162 0.741258C13.3506 0.506919 13.6685 0.375275 14 0.375275C14.3314 0.375275 14.6493 0.506919 14.8837 0.741258L18.1425 4.00001H22.75C23.0815 4.00001 23.3994 4.1317 23.6339 4.36612C23.8683 4.60054 24 4.91849 24 5.25001V9.85751L27.2587 13.1163C27.4931 13.3507 27.6247 13.6686 27.6247 14C27.6247 14.3315 27.4931 14.6493 27.2587 14.8838L24 18.1425V22.75C24 23.0815 23.8683 23.3995 23.6339 23.6339C23.3994 23.8683 23.0815 24 22.75 24H18.1425L14.8837 27.2588C14.6493 27.4931 14.3314 27.6247 14 27.6247C13.6685 27.6247 13.3506 27.4931 13.1162 27.2588L9.85748 24H5.24998C4.91846 24 4.60051 23.8683 4.36609 23.6339C4.13167 23.3995 3.99998 23.0815 3.99998 22.75V18.1425L0.741227 14.8838C0.506888 14.6493 0.375244 14.3315 0.375244 14C0.375244 13.6686 0.506888 13.3507 0.741227 13.1163L3.99998 9.85751V5.25001C3.99998 4.91849 4.13167 4.60054 4.36609 4.36612C4.60051 4.1317 4.91846 4.00001 5.24998 4.00001H9.85748ZM6.49998 6.50001V10.8938L3.39373 14L6.49998 17.1063V21.5H10.8937L14 24.6063L17.1062 21.5H21.5V17.1063L24.6062 14L21.5 10.8938V6.50001H17.1062L14 3.39376L10.8937 6.50001H6.49998ZM14 19C12.6739 19 11.4021 18.4732 10.4644 17.5355C9.52676 16.5979 8.99998 15.3261 8.99998 14C8.99998 12.6739 9.52676 11.4022 10.4644 10.4645C11.4021 9.52679 12.6739 9.00001 14 9.00001C15.3261 9.00001 16.5978 9.52679 17.5355 10.4645C18.4732 11.4022 19 12.6739 19 14C19 15.3261 18.4732 16.5979 17.5355 17.5355C16.5978 18.4732 15.3261 19 14 19ZM14 16.5C14.663 16.5 15.2989 16.2366 15.7677 15.7678C16.2366 15.2989 16.5 14.663 16.5 14C16.5 13.337 16.2366 12.7011 15.7677 12.2322C15.2989 11.7634 14.663 11.5 14 11.5C13.3369 11.5 12.7011 11.7634 12.2322 12.2322C11.7634 12.7011 11.5 13.337 11.5 14C11.5 14.663 11.7634 15.2989 12.2322 15.7678C12.7011 16.2366 13.3369 16.5 14 16.5Z" fill="currentColor"/>
</symbol><symbol id="icon-shop" viewBox="0 0 28 26">
<path d="M25.25 14.5525V23H26.5V25.5H1.5V23H2.75V14.5525C1.98046 14.0388 1.34964 13.3432 0.913525 12.5272C0.477409 11.7112 0.24949 10.8002 0.250001 9.87499C0.250001 8.84124 0.530001 7.84499 1.04125 6.99624L4.43125 1.12498C4.54096 0.934965 4.69875 0.777171 4.88877 0.667461C5.07879 0.557751 5.29434 0.49999 5.51375 0.499985H22.4875C22.7069 0.49999 22.9225 0.557751 23.1125 0.667461C23.3025 0.777171 23.4603 0.934965 23.57 1.12498L26.9475 6.97749C27.6932 8.21608 27.9329 9.6944 27.6168 11.1052C27.3006 12.5159 26.453 13.7506 25.25 14.5525ZM22.75 15.465C21.8905 15.5614 21.0204 15.4582 20.2074 15.1633C19.3944 14.8684 18.6604 14.3899 18.0625 13.765C17.5378 14.3138 16.9072 14.7506 16.209 15.049C15.5108 15.3475 14.7593 15.5013 14 15.5012C13.2409 15.5016 12.4895 15.3482 11.7913 15.0502C11.0931 14.7522 10.4625 14.3159 9.9375 13.7675C9.33953 14.3922 8.60547 14.8705 7.79244 15.1651C6.97942 15.4598 6.10936 15.5628 5.25 15.4662V23H22.75V15.4662V15.465ZM6.23625 2.99998L3.195 8.26624C2.89947 8.99642 2.8906 9.81127 3.17017 10.5477C3.44973 11.2842 3.9971 11.8878 4.70273 12.238C5.40836 12.5881 6.22018 12.6588 6.97573 12.436C7.73127 12.2132 8.3748 11.7132 8.7775 11.0362C9.19625 9.98999 10.6775 9.98999 11.0975 11.0362C11.3291 11.6168 11.7295 12.1145 12.2469 12.4651C12.7643 12.8157 13.375 13.0032 14 13.0032C14.625 13.0032 15.2357 12.8157 15.7531 12.4651C16.2705 12.1145 16.6709 11.6168 16.9025 11.0362C17.3213 9.98999 18.8025 9.98999 19.2225 11.0362C19.3847 11.4355 19.6278 11.797 19.9364 12.0978C20.2451 12.3987 20.6126 12.6324 21.0159 12.7844C21.4192 12.9363 21.8496 13.0032 22.2801 12.9808C22.7105 12.9584 23.1316 12.8473 23.517 12.6543C23.9024 12.4613 24.2437 12.1906 24.5194 11.8594C24.7952 11.5282 24.9994 11.1434 25.1193 10.7295C25.2393 10.3155 25.2722 9.88115 25.2162 9.4538C25.1602 9.02645 25.0163 8.61532 24.7938 8.24623L21.7625 2.99998H6.2375H6.23625Z" fill="currentColor"/>
</symbol><symbol id="icon-wallet" viewBox="0 0 27 24">
<path d="M25.5 5.75H26.75V18.25H25.5V22C25.5 22.3315 25.3683 22.6495 25.1339 22.8839C24.8995 23.1183 24.5815 23.25 24.25 23.25H1.75C1.41848 23.25 1.10054 23.1183 0.866116 22.8839C0.631696 22.6495 0.5 22.3315 0.5 22V2C0.5 1.66848 0.631696 1.35054 0.866116 1.11612C1.10054 0.881696 1.41848 0.75 1.75 0.75H24.25C24.5815 0.75 24.8995 0.881696 25.1339 1.11612C25.3683 1.35054 25.5 1.66848 25.5 2V5.75ZM23 18.25H15.5C13.8424 18.25 12.2527 17.5915 11.0806 16.4194C9.90848 15.2473 9.25 13.6576 9.25 12C9.25 10.3424 9.90848 8.75268 11.0806 7.58058C12.2527 6.40848 13.8424 5.75 15.5 5.75H23V3.25H3V20.75H23V18.25ZM24.25 15.75V8.25H15.5C14.5054 8.25 13.5516 8.64509 12.8483 9.34835C12.1451 10.0516 11.75 11.0054 11.75 12C11.75 12.9946 12.1451 13.9484 12.8483 14.6517C13.5516 15.3549 14.5054 15.75 15.5 15.75H24.25ZM15.5 10.75H19.25V13.25H15.5V10.75Z" fill="currentColor"/>
</symbol></svg>