<svg width="136" height="35" fill="none" xmlns="http://www.w3.org/2000/svg"><path fill-rule="evenodd" clip-rule="evenodd" d="M102.23 8.575c1.922 0 3.48-1.549 3.48-3.459 0-1.91-1.558-3.458-3.48-3.458s-3.48 1.548-3.48 3.458c0 1.91 1.558 3.459 3.48 3.459zM134.432 0h-3.312c-.433 0-.849.29-.913.635l-1.2 9.026a.375.375 0 00.383.435h2.431c.426 0 .888-.325 1.03-.725l2.804-7.912C136.068.626 135.544 0 134.432 0zm-4.9 29.48l-.202.044-.203.043a5.582 5.582 0 01-.838.118c-1.174.065-2.047-1.061-1.882-2.39l.062-.602c.309-2.238.536-3.93.743-5.584.269-2.146.357-3.242.304-4.487-.096-2.281-1.251-3.867-3.375-4.536a13.475 13.475 0 00-3.522-.604c-3.524-.126-7.09.553-11.158 1.982-.88.308-1.351.89-1.443 1.802a9.746 9.746 0 01-.096.665c-.036.211-.051.305-.067.421l-1.169 8.46-.234 1.691c-.153 1.11-.399 2.248-.399 2.248-.247 1.275-1.335 1.088-1.722 1.11-1.133.061-1.768-.495-1.813-1.605-.02-.463-.001-.943.051-1.553 1.315-9.066 1.951-13.505 2.03-14.27.057-.541-.1-.72-.631-.728a136.712 136.712 0 00-5.299.015c-.705.018-.971.27-1.075 1.01-.062.434-.225 1.556-.542 3.732l-.215 1.468-.115.786-.118.812-.5 3.416-.013.094c-.09.622-.421 3.117-.421 3.117a12.545 12.545 0 00-.054 2.994c-.203.183-3.085 2.642-5.417-3.157-.056-.139-.11-.268-.162-.388l-.39-1.001-.345-.884-.344-.88a.273.273 0 01.1-.325c.098-.068.196-.135.329-.223l.16-.106.155-.104c.255-.171.434-.3.6-.436 1.599-1.298 2.7-3.06 3.467-5.361.474-1.425.689-2.655.623-3.863-.033-.614-.265-.895-.721-.902-1.646-.027-3.349-.02-5.15.016-.428.008-.647.222-.724.706-.035.22-.056.448-.074.77l-.013.258c-.088 1.739-.596 3.275-1.556 4.611-1.066 1.482-3.337 2.329-5.029 1.867a.274.274 0 01-.2-.3l.423-3.217c.438-3.327.657-4.998.912-6.944l.155-1.182c.291-2.21.416-3.194.555-4.424.078-.688-.098-.868-.793-.82-1.845.131-3.454.259-4.99.4-.934.085-1.162.308-1.325 1.296-.069.418-.114.755-.213 1.54-.046.363-.07.543-.098.754a35405.808 35405.808 0 01-2.25 16.524l-.019.136c-.365 2.67-.541 3.964-.75 5.503l-.049.354a.275.275 0 01-.221.233c-.418.08-.732.124-1.045.141-1.143.062-1.785-.493-1.831-1.6-.02-.472-.002-.936.053-1.635.304-2.159.529-3.807.734-5.415.277-2.17.367-3.245.317-4.488-.092-2.304-1.277-3.904-3.463-4.57a14.38 14.38 0 00-3.693-.6c-3.53-.111-7.1.562-11.222 1.973-.91.312-1.392.9-1.503 1.84a71.568 71.568 0 01-.327 2.363c-.08.538-.116.778-.158 1.077a25017.91 25017.91 0 00-1.536 10.788.275.275 0 01-.22.23 7.75 7.75 0 01-1.106.157c-1.133.061-1.768-.495-1.813-1.605-.014-.318-.009-.65.011-1.03.014-.256.084-1.15.09-1.24 0 0 .058-.552.088-.823.219-1.938.439-3.481.97-6.965.287-1.877.414-2.728.562-3.78.125-.889-.182-1.366-1.185-1.708-.932-.319-1.366-.458-1.898-.6-2.994-.8-5.945-.88-8.846-.212-3.848.886-6.568 3.098-8.126 6.628a16.233 16.233 0 00-.873 2.52c-1.116-3.538-4.028-5.439-4.028-5.439s3.12-2.13 3.425-6.926C25.942 3.884 20.596.002 13.924.002 5.704.002.74 3.448.236 3.722c-.093.05-.272.155-.23.304L1.31 8.131c.075.277.093.498.44.342 0 0 3.24-1.31 3.956-1.31 0 0-3.73 25.72-3.64 25.72-.09.764 0 .979 1.028 1.281.41.12 18.728 4.117 22.838-6.497.018.124.036.247.057.372.304 1.817 1.008 3.28 2.197 4.392 1.86 1.74 4.173 2.237 7.11 1.739 1.033-.175 2.006-.642 2.997-1.398a.277.277 0 01.395.061c.75 1.072 1.886 1.673 4.103 1.669 2.203-.013 3.692-.506 5.074-.972a.277.277 0 01.34.147c.097.214-.222.665.544.665 1.902 0 3.59.033 5.2-.001.721-.015.982-.257 1.098-1.003a189.878 189.878 0 00.493-3.379l.436-3.102a2308.6 2308.6 0 011.319-9.308.899.899 0 01.5-.634 8.056 8.056 0 013.424-.583c1.185.055 1.915.657 2.136 1.761.079.389.1.772.054 1.121-.285 2.16-.566 4.242-.946 7.088 0 0-1.212 7.21 4.586 8.07 2.908.012 9.423.089 11.03.05.578-.013.837-.275.934-.935.11-.75.196-1.376.377-2.745l.113-.853a2093.56 2093.56 0 00.619-4.66.276.276 0 01.274-.238h2.14c.114 0 .216.069.258.174l.092.231c.01.023.018.046.026.067.513.992 2.012 3.89 2.4 4.676.383.779 3.727 5.693 8.148 4.275a4.847 4.847 0 003.099-2.082c.711 1.281 1.762 2.085 3.026 2.154v.064h10.122v-.067c.532-.02 1.718-.074 1.902-.11.355-.066.568-.295.654-.62.079-.296.137-.572.174-.837l.605-4.371.025-.182c.743-5.371 1.075-7.761 1.494-10.746.036-.256.242-.55.475-.647a7.87 7.87 0 013.414-.591c.959.044 1.666.484 1.948 1.327a3.56 3.56 0 01.175 1.528 610.83 610.83 0 01-.959 7.275c-.149 1.22-.624 7.443 5.09 7.917 1.127.008 1.609-.012 2.153-.104.747-.127 1.294-.386 1.729-.845.888-.936 1.548-2.23 1.548-3.45 0-.547-.47-.576-.601-.547zM13.089 6.1a.18.18 0 01.135-.148l.13-.03a6.78 6.78 0 01.348-.062c.848-.13 1.748-.136 2.598.067.617.147 3.317.78 2.455 4.21-.862 3.43-5.243 3.534-5.898 3.498a23.904 23.904 0 01-.452-.028l-.126-.01a2.54 2.54 0 01-.044-.003.18.18 0 01-.165-.202L13.09 6.1zm7.122 18.506c-1.149 5.174-8.154 4.595-9.074 4.545a38.438 38.438 0 01-.813-.054l-.062-.005a.252.252 0 01-.231-.284l1.432-10.25a.253.253 0 01.189-.208c.034-.008.096-.023.183-.041.144-.03.308-.06.49-.088 1.191-.183 2.457-.19 3.651.094.869.207 5.383 1.117 4.235 6.291zm19.63-6.257c-.137.855-1.032 7.878-1.324 9.767-.087.566-.608 1.013-1.152 1.175-1.107.33-1.9.375-2.713.034-.87-.365-1.412-1.082-1.623-2.03-.703-3.158-.24-6.082 1.448-8.703.88-1.364 2.36-2.103 3.901-1.998 1.005.069 1.202.104 1.41.352.212.251.204.451.053 1.403z" fill="currentColor"/></svg>