<svg width="28" height="28" fill="none" xmlns="http://www.w3.org/2000/svg"><path d="M9.857 4l3.26-3.259a1.25 1.25 0 011.767 0L18.142 4h4.608A1.25 1.25 0 0124 5.25v4.608l3.259 3.258a1.25 1.25 0 010 1.768L24 18.142v4.608A1.25 1.25 0 0122.75 24h-4.608l-3.258 3.259a1.25 1.25 0 01-1.768 0L9.857 24H5.25A1.25 1.25 0 014 22.75v-4.608L.741 14.884a1.25 1.25 0 010-1.768L4 9.858V5.25A1.25 1.25 0 015.25 4h4.607zM6.5 6.5v4.394L3.394 14 6.5 17.106V21.5h4.394L14 24.606l3.106-3.106H21.5v-4.394L24.606 14 21.5 10.894V6.5h-4.394L14 3.394 10.894 6.5H6.5zM14 19a5 5 0 110-10 5 5 0 010 10zm0-2.5a2.5 2.5 0 100-5 2.5 2.5 0 000 5z" fill="currentColor"/></svg>